<?xml version="1.0" encoding="UTF-8" standalone="no"?>
<!-- Created with Inkscape (http://www.inkscape.org/) -->

<svg
   xml:space="preserve"
   id="svg5"
   version="1.1"
   viewBox="0 0 750 399.99999"
   height="400mm"
   width="750mm"
   sodipodi:docname="logo.svg"
   inkscape:export-filename="logo.svg"
   inkscape:export-xdpi="96"
   inkscape:export-ydpi="96"
   inkscape:version="1.4.2 (f4327f4, 2025-05-13)"
   xmlns:inkscape="http://www.inkscape.org/namespaces/inkscape"
   xmlns:sodipodi="http://sodipodi.sourceforge.net/DTD/sodipodi-0.dtd"
   xmlns="http://www.w3.org/2000/svg"
   xmlns:svg="http://www.w3.org/2000/svg"><sodipodi:namedview
     id="namedview1"
     pagecolor="#505050"
     bordercolor="#eeeeee"
     borderopacity="1"
     inkscape:showpageshadow="0"
     inkscape:pageopacity="0"
     inkscape:pagecheckerboard="0"
     inkscape:deskcolor="#505050"
     inkscape:document-units="mm"
     inkscape:export-bgcolor="#ffffff00"
     inkscape:zoom="0.2080426"
     inkscape:cx="1384.3319"
     inkscape:cy="1011.812"
     inkscape:window-width="1536"
     inkscape:window-height="793"
     inkscape:window-x="1592"
     inkscape:window-y="-3"
     inkscape:window-maximized="1"
     inkscape:current-layer="g17766-5-0" /><defs
     id="defs2"><clipPath
       clipPathUnits="userSpaceOnUse"
       id="clipPath14227-5-5-7-5-1-9-1-5-9-7-1-1-3-1"><g
         id="g14231-5-9-9-8-88-52-0-2-7-1-0-4-8-8"><path
           d="m 1359.37,2493.2011 v 279.4 h 215.9 v -279.4 z"
           id="path14229-8-5-8-6-2-2-1-3-3-5-7-0-4-82"
           style="stroke-width:0.352778" /></g></clipPath><clipPath
       clipPathUnits="userSpaceOnUse"
       id="clipPath14209-5-8-0-1-4-5-8-6-3-9-1-0-7-96"><g
         id="g14213-7-8-9-5-2-5-1-4-4-4-0-3-6-7"><path
           d="m 1359.37,2493.2011 v 279.4 h 215.9 v -279.4 z"
           id="path14211-0-9-1-2-9-2-6-8-2-9-7-2-84-9"
           style="stroke-width:0.352778" /></g></clipPath><clipPath
       clipPathUnits="userSpaceOnUse"
       id="clipPath14167-3-4-4-7-26-2-9-3-31-6-1-2-16-4"><g
         id="g14171-4-6-5-3-74-0-3-6-6-2-1-2-6-94"><path
           d="m 1359.37,2493.2011 v 279.4 h 215.9 v -279.4 z"
           id="path14169-0-7-3-9-0-2-5-7-15-6-9-0-0-4"
           style="stroke-width:0.352778" /></g></clipPath><clipPath
       clipPathUnits="userSpaceOnUse"
       id="clipPath14161-3-5-4-6-2-6-1-9-5-4-6-5-6-57"><g
         id="g14165-0-1-6-9-57-4-8-0-2-3-5-8-0-7"><path
           d="m 1359.37,2493.2011 v 279.4 h 215.9 v -279.4 z"
           id="path14163-5-3-7-0-81-6-7-09-5-5-3-1-7-8"
           style="stroke-width:0.352778" /></g></clipPath><clipPath
       clipPathUnits="userSpaceOnUse"
       id="clipPath14155-4-6-7-3-7-1-8-1-1-8-0-8-6-9"><g
         id="g14159-6-3-2-7-7-29-9-5-8-4-7-5-08-5"><path
           d="m 1359.37,2493.2011 v 279.4 h 215.9 v -279.4 z"
           id="path14157-3-9-5-60-23-68-0-7-6-4-6-8-1-7"
           style="stroke-width:0.352778" /></g></clipPath><clipPath
       clipPathUnits="userSpaceOnUse"
       id="clipPath14083-2-5-6-5-8-91-6-0-5-7-3-3-3-6"><g
         id="g14087-9-0-9-6-1-58-9-7-7-2-3-1-8-4"><path
           d="m 1359.37,2493.2011 v 279.4 h 215.9 v -279.4 z"
           id="path14085-1-0-0-8-3-9-5-4-9-4-8-0-1-20"
           style="stroke-width:0.352778" /></g></clipPath><clipPath
       clipPathUnits="userSpaceOnUse"
       id="clipPath14077-3-2-9-2-6-74-5-7-4-5-8-5-5-9"><g
         id="g14081-4-7-5-7-8-6-8-0-4-1-9-5-6-7"><path
           d="m 1359.37,2493.2011 v 279.4 h 215.9 v -279.4 z"
           id="path14079-4-1-4-5-21-71-3-7-2-8-3-5-4-8"
           style="stroke-width:0.352778" /></g></clipPath><clipPath
       clipPathUnits="userSpaceOnUse"
       id="clipPath14071-7-8-3-2-65-3-8-7-6-4-4-4-6-8"><g
         id="g14075-3-0-2-69-10-2-7-7-8-7-5-8-7-7"><path
           d="m 1359.37,2493.2011 v 279.4 h 215.9 v -279.4 z"
           id="path14073-1-9-2-0-7-2-6-9-71-2-6-7-8-6"
           style="stroke-width:0.352778" /></g></clipPath><clipPath
       clipPathUnits="userSpaceOnUse"
       id="clipPath14059-7-2-3-71-88-03-5-8-0-3-8-2-7-1"><g
         id="g14063-0-7-5-4-0-48-8-3-2-1-1-3-5-3"><path
           d="m 1359.37,2493.2011 v 279.4 h 215.9 v -279.4 z"
           id="path14061-6-5-6-21-1-4-7-8-42-8-2-8-0-6"
           style="stroke-width:0.352778" /></g></clipPath><clipPath
       clipPathUnits="userSpaceOnUse"
       id="clipPath14035-1-0-9-2-6-1-7-3-1-8-5-0-4-4"><g
         id="g14039-4-7-1-0-9-6-4-9-0-4-3-3-2-1"><path
           d="m 1359.37,2493.2011 v 279.4 h 215.9 v -279.4 z"
           id="path14037-3-6-9-2-9-22-8-0-1-5-1-9-6-7"
           style="stroke-width:0.352778" /></g></clipPath><clipPath
       clipPathUnits="userSpaceOnUse"
       id="clipPath13999-5-2-8-8-32-3-9-48-7-3-7-7-57-97"><g
         id="g14003-2-8-5-31-6-8-2-1-79-9-3-2-7-8"><path
           d="m 1359.37,2493.2011 v 279.4 h 215.9 v -279.4 z"
           id="path14001-0-7-7-8-4-4-7-7-9-2-2-4-2-69"
           style="stroke-width:0.352778" /></g></clipPath><clipPath
       clipPathUnits="userSpaceOnUse"
       id="clipPath13279-6-8-6-3-0-3-5-0-1-2-3-6-7-4"><g
         id="g13283-8-5-4-8-7-76-3-4-2-5-9-0-4-25"><path
           d="m 1359.37,2493.2011 v 279.4 h 215.9 v -279.4 z"
           id="path13281-7-9-9-07-8-0-5-1-3-2-9-6-8-8"
           style="stroke-width:0.352778" /></g></clipPath><clipPath
       clipPathUnits="userSpaceOnUse"
       id="clipPath13273-9-3-2-6-0-29-6-4-9-5-1-8-2-3"><g
         id="g13277-6-2-9-0-8-88-0-6-5-3-5-2-57-5"><path
           d="m 1359.37,2493.2011 v 279.4 h 215.9 v -279.4 z"
           id="path13275-9-0-4-1-14-2-9-1-8-9-6-3-7-38"
           style="stroke-width:0.352778" /></g></clipPath><clipPath
       clipPathUnits="userSpaceOnUse"
       id="clipPath13267-1-4-3-6-76-2-9-7-7-9-6-2-0-7"><g
         id="g13271-8-1-4-3-97-5-4-7-5-2-5-8-7-49"><path
           d="m 1359.37,2493.2011 v 279.4 h 215.9 v -279.4 z"
           id="path13269-1-1-8-9-06-2-6-4-5-4-9-7-2-2"
           style="stroke-width:0.352778" /></g></clipPath><clipPath
       clipPathUnits="userSpaceOnUse"
       id="clipPath13219-6-9-0-31-65-55-9-0-5-6-4-1-2-1"><g
         id="g13223-3-7-3-24-9-3-6-6-9-9-9-3-5-19"><path
           d="m 1359.37,2493.2011 v 279.4 h 215.9 v -279.4 z"
           id="path13221-9-8-2-1-50-29-9-99-42-6-3-0-3-86"
           style="stroke-width:0.352778" /></g></clipPath><clipPath
       clipPathUnits="userSpaceOnUse"
       id="clipPath13189-5-8-5-4-70-61-2-3-8-6-6-3-56-3"><g
         id="g13193-8-8-2-1-44-4-0-47-28-2-2-1-8-7"><path
           d="m 1359.37,2493.2011 v 279.4 h 215.9 v -279.4 z"
           id="path13191-1-2-8-6-32-5-4-5-2-1-2-4-9-2"
           style="stroke-width:0.352778" /></g></clipPath><clipPath
       clipPathUnits="userSpaceOnUse"
       id="clipPath13183-7-1-5-8-4-3-8-3-6-7-8-2-8-1"><g
         id="g13187-4-1-8-2-02-810-7-3-2-8-0-2-49-68"><path
           d="m 1359.37,2493.2011 v 279.4 h 215.9 v -279.4 z"
           id="path13185-9-9-4-8-50-6-5-9-5-5-3-7-0-25"
           style="stroke-width:0.352778" /></g></clipPath><clipPath
       clipPathUnits="userSpaceOnUse"
       id="clipPath13141-0-7-6-4-71-1-1-5-1-4-8-2-7-8"><g
         id="g13145-8-9-3-3-7-89-9-9-9-6-9-5-3-2"><path
           d="m 1359.37,2493.2011 v 279.4 h 215.9 v -279.4 z"
           id="path13143-0-3-6-00-8-3-6-2-2-6-2-1-5-6"
           style="stroke-width:0.352778" /></g></clipPath><clipPath
       clipPathUnits="userSpaceOnUse"
       id="clipPath13135-8-6-3-9-57-4-6-1-2-3-5-5-20-4"><g
         id="g13139-9-1-5-5-16-0-3-5-7-6-9-4-6-9"><path
           d="m 1359.37,2493.2011 v 279.4 h 215.9 v -279.4 z"
           id="path13137-5-9-5-4-55-86-4-1-5-1-3-9-0-1"
           style="stroke-width:0.352778" /></g></clipPath><clipPath
       clipPathUnits="userSpaceOnUse"
       id="clipPath13093-5-6-3-53-74-9-7-2-3-9-9-9-5-2"><g
         id="g13097-2-6-8-6-38-846-5-0-3-4-6-8-6-1"><path
           d="m 1359.37,2493.2011 v 279.4 h 215.9 v -279.4 z"
           id="path13095-8-5-7-4-8-2-0-7-5-0-1-3-7-63"
           style="stroke-width:0.352778" /></g></clipPath><clipPath
       clipPathUnits="userSpaceOnUse"
       id="clipPath13087-1-0-8-9-2-8-0-5-7-3-1-0-3-67"><g
         id="g13091-6-6-5-5-53-7-7-9-4-7-3-7-0-1"><path
           d="m 1359.37,2493.2011 v 279.4 h 215.9 v -279.4 z"
           id="path13089-6-1-0-6-0-6-0-1-3-1-9-3-0-7"
           style="stroke-width:0.352778" /></g></clipPath></defs><g
     id="g17766-5-0"
     transform="matrix(9.1022529,0,0,9.1022529,-65631.391,-69019.632)"><g
       id="g16294-6-0-25-8"
       style="fill:none;stroke:#f9f9f9;stroke-width:0.3;stroke-linecap:round;stroke-linejoin:round;stroke-dasharray:none"
       transform="matrix(0.9867193,0,0,0.9867193,5784.1485,5037.7414)"><g
         id="g16292-8-4-7-7"
         transform="translate(-0.522075)"
         style="fill:none;stroke:#f9f9f9" /></g><path
       style="baseline-shift:baseline;display:inline;overflow:visible;vector-effect:none;fill:#f9f9f9;stroke-linecap:round;stroke-linejoin:round;stroke-miterlimit:10;enable-background:accumulate;stop-color:#000000;stop-opacity:1;opacity:1"
       d="m 1490.3145,2612.7559 a 0.15001501,0.15001501 0 0 0 -0.1504,0.1504 v 3.0898 1.6738 a 0.15000001,0.15000001 0 0 0 0.1504,0.1485 0.15000001,0.15000001 0 0 0 0.1484,-0.1485 v -1.5254 h 2.1465 a 0.15001501,0.15001501 0 0 0 0.016,0 c 0.2737,-0.026 0.5202,-0.1233 0.7285,-0.289 0.2041,-0.1622 0.3665,-0.3678 0.4805,-0.6114 0.1135,-0.2437 0.1699,-0.509 0.1699,-0.7871 0,-0.2088 -0.039,-0.4136 -0.1172,-0.6113 v -0 c -0.077,-0.2005 -0.1868,-0.3808 -0.3262,-0.5411 -0.141,-0.1672 -0.3102,-0.2996 -0.5039,-0.3945 -0.1986,-0.1023 -0.4186,-0.1523 -0.6543,-0.1523 z m 0.1484,0.2988 h 1.9394 c 0.1938,0 0.3634,0.04 0.5176,0.1191 a 0.15001501,0.15001501 0 0 0 0,0 c 0.1581,0.077 0.2925,0.183 0.4082,0.3203 a 0.15001501,0.15001501 0 0 0 0,0 c 0.1174,0.1348 0.208,0.2849 0.2734,0.4551 a 0.15001501,0.15001501 0 0 0 0,0 c 0.065,0.1644 0.098,0.3298 0.098,0.5019 0,0.2369 -0.049,0.4558 -0.1446,0.6602 -0.096,0.2048 -0.2247,0.3705 -0.3925,0.5039 -0.1635,0.1301 -0.3502,0.2033 -0.5723,0.2246 h -2.1328 z"
       id="path16250-3-4-4-4"
       transform="matrix(0.98671929,0,0,0.98671929,5785.3559,5040.6657)"
       inkscape:export-filename="logo.svg"
       inkscape:export-xdpi="96"
       inkscape:export-ydpi="96" /><path
       style="baseline-shift:baseline;display:inline;overflow:visible;vector-effect:none;fill:#f9f9f9;stroke-linecap:round;stroke-linejoin:round;stroke-miterlimit:10;enable-background:accumulate;stop-color:#000000;stop-opacity:1;opacity:1"
       d="m 1461.6309,2612.7559 a 0.15001501,0.15001501 0 0 0 -0.1485,0.1504 v 3.0898 1.6738 a 0.15000001,0.15000001 0 0 0 0.1485,0.1485 0.15000001,0.15000001 0 0 0 0.1504,-0.1485 v -1.5254 h 2.1464 a 0.15001501,0.15001501 0 0 0 0.014,0 c 0.2739,-0.026 0.5221,-0.1234 0.7305,-0.289 0.2041,-0.1622 0.3645,-0.3678 0.4785,-0.6114 0.1148,-0.2443 0.1719,-0.5094 0.1719,-0.7871 0,-0.2087 -0.039,-0.4136 -0.1172,-0.6113 v -0 c -0.077,-0.2002 -0.1872,-0.381 -0.3262,-0.5411 l -0,-0 c -0.1407,-0.1662 -0.309,-0.2981 -0.502,-0.3926 -0.1986,-0.1023 -0.4187,-0.1523 -0.6543,-0.1523 z m 0.1504,0.2988 h 1.9394 c 0.1936,0 0.3634,0.04 0.5176,0.1191 a 0.15001501,0.15001501 0 0 0 0,0 c 0.1582,0.077 0.2944,0.183 0.4102,0.3203 a 0.15001501,0.15001501 0 0 0 0,0 c 0.1174,0.1349 0.208,0.285 0.2735,0.4551 a 0.15001501,0.15001501 0 0 0 0,0 c 0.065,0.1643 0.098,0.3297 0.098,0.5019 0,0.2373 -0.049,0.4563 -0.1445,0.6602 -0.096,0.2048 -0.2247,0.3705 -0.3926,0.5039 -0.1636,0.1301 -0.3501,0.2033 -0.5722,0.2246 h -2.1328 z"
       id="path16252-1-2-0-13"
       transform="matrix(0.98671929,0,0,0.98671929,5785.3559,5040.6657)" /><path
       style="baseline-shift:baseline;display:inline;overflow:visible;vector-effect:none;fill:#f9f9f9;stroke-linecap:round;stroke-linejoin:round;stroke-miterlimit:10;enable-background:accumulate;stop-color:#000000;stop-opacity:1;opacity:1"
       d="m 1514.5117,2612.7559 a 0.15000001,0.15000001 0 0 0 -0.1504,0.1504 v 4.3457 l -3.6543,-4.4415 a 0.15001501,0.15001501 0 0 0 -0.2656,0.096 v 4.7636 a 0.15000001,0.15000001 0 0 0 0.1504,0.1504 0.15000001,0.15000001 0 0 0 0.1484,-0.1504 v -4.3476 l 3.6543,4.4433 a 0.15001501,0.15001501 0 0 0 0.2657,-0.096 v -4.7636 a 0.15000001,0.15000001 0 0 0 -0.1485,-0.1504 z"
       id="path16254-8-0-2-8"
       transform="matrix(0.98671929,0,0,0.98671929,5786.3862,5040.6657)" /><path
       style="baseline-shift:baseline;display:inline;overflow:visible;vector-effect:none;fill:#f9f9f9;stroke-linecap:round;stroke-linejoin:round;stroke-miterlimit:10;enable-background:accumulate;stop-color:#000000;stop-opacity:1;opacity:1"
       d="m 1478.2266,2612.7559 a 0.15000001,0.15000001 0 0 0 -0.1504,0.1504 v 4.3457 l -3.6543,-4.4415 a 0.15001501,0.15001501 0 0 0 -0.2656,0.096 v 4.7636 a 0.15000001,0.15000001 0 0 0 0.1503,0.1504 0.15000001,0.15000001 0 0 0 0.1485,-0.1504 v -4.3476 l 3.6543,4.4433 a 0.15001501,0.15001501 0 0 0 0.2656,-0.096 v -4.7636 a 0.15000001,0.15000001 0 0 0 -0.1484,-0.1504 z"
       id="path16256-4-2-0-0"
       transform="matrix(0.98671929,0,0,0.98671929,5785.3559,5040.6657)" /><path
       style="baseline-shift:baseline;display:inline;overflow:visible;vector-effect:none;fill:#f9f9f9;stroke-linecap:round;stroke-linejoin:round;stroke-miterlimit:10;enable-background:accumulate;stop-color:#000000;stop-opacity:1;opacity:1"
       d="m 1485.2891,2612.7559 a 0.15001501,0.15001501 0 0 0 -0.1504,0.1504 v 4.7636 a 0.15001501,0.15001501 0 0 0 0.1504,0.1504 h 3.3554 a 0.15000001,0.15000001 0 0 0 0.1485,-0.1504 0.15000001,0.15000001 0 0 0 -0.1485,-0.1504 h -3.205 v -4.4648 h 3.1406 a 0.15000001,0.15000001 0 0 0 0.1484,-0.1484 0.15000001,0.15000001 0 0 0 -0.1484,-0.1504 z"
       id="path16258-8-0-4-1"
       transform="matrix(0.98671929,0,0,0.98671929,5785.3559,5040.6657)" /><path
       style="baseline-shift:baseline;display:inline;overflow:visible;vector-effect:none;fill:#f9f9f9;stroke-linecap:round;stroke-linejoin:round;stroke-miterlimit:10;enable-background:accumulate;stop-color:#000000;stop-opacity:1;opacity:1"
       d="m 1485.2891,2615.8457 a 0.15000001,0.15000001 0 0 0 -0.1504,0.1504 0.15000001,0.15000001 0 0 0 0.1504,0.1484 h 3.291 a 0.15000001,0.15000001 0 0 0 0.1484,-0.1484 0.15000001,0.15000001 0 0 0 -0.1484,-0.1504 z"
       id="path16260-3-1-2-9"
       transform="matrix(0.98671929,0,0,0.98671929,5785.3559,5040.6657)" /><path
       style="baseline-shift:baseline;display:inline;overflow:visible;vector-effect:none;fill:#f9f9f9;stroke-linecap:round;stroke-linejoin:round;stroke-miterlimit:10;enable-background:accumulate;stop-color:#000000;stop-opacity:1;opacity:1"
       d="m 1472.0566,2612.7559 a 0.15000001,0.15000001 0 0 0 -0.1503,0.1504 v 4.7636 a 0.15000001,0.15000001 0 0 0 0.1503,0.1504 0.15000001,0.15000001 0 0 0 0.1504,-0.1504 v -4.7636 a 0.15000001,0.15000001 0 0 0 -0.1504,-0.1504 z"
       id="path16262-5-6-2-3"
       transform="matrix(0.98671929,0,0,0.98671929,5785.3559,5040.6657)" /><path
       style="baseline-shift:baseline;display:inline;overflow:visible;vector-effect:none;fill:#f9f9f9;stroke-linecap:round;stroke-linejoin:round;stroke-miterlimit:10;enable-background:accumulate;stop-color:#000000;stop-opacity:1;opacity:1"
       d="m 1479.793,2612.7559 a 0.15000001,0.15000001 0 0 0 -0.1504,0.1504 0.15000001,0.15000001 0 0 0 0.1504,0.1484 h 4.0547 a 0.15000001,0.15000001 0 0 0 0.1503,-0.1484 0.15000001,0.15000001 0 0 0 -0.1503,-0.1504 z"
       id="path16264-2-9-4-1"
       transform="matrix(0.98671929,0,0,0.98671929,5785.3559,5040.6657)" /><path
       style="baseline-shift:baseline;display:inline;overflow:visible;vector-effect:none;fill:#f9f9f9;stroke-linecap:round;stroke-linejoin:round;stroke-miterlimit:10;enable-background:accumulate;stop-color:#000000;stop-opacity:1;opacity:1"
       d="m 1481.8203,2612.7559 a 0.15000001,0.15000001 0 0 0 -0.1504,0.1504 v 4.7636 a 0.15000001,0.15000001 0 0 0 0.1504,0.1504 0.15000001,0.15000001 0 0 0 0.1504,-0.1504 v -4.7636 a 0.15000001,0.15000001 0 0 0 -0.1504,-0.1504 z"
       id="path16266-4-5-2-4"
       transform="matrix(0.98671929,0,0,0.98671929,5785.3559,5040.6657)" /><path
       style="baseline-shift:baseline;display:inline;overflow:visible;vector-effect:none;fill:#f9f9f9;stroke-linecap:round;stroke-linejoin:round;stroke-miterlimit:10;enable-background:accumulate;stop-color:#000000;stop-opacity:1;opacity:1"
       d="m 1496.3496,2611.0996 a 0.15000001,0.15000001 0 0 0 -0.2109,0.01 l -0.4961,0.5508 a 0.15000001,0.15000001 0 0 0 0.01,0.2128 0.15000001,0.15000001 0 0 0 0.2129,-0.012 l 0.4961,-0.5508 a 0.15000001,0.15000001 0 0 0 -0.012,-0.2109 z"
       id="path16268-8-8-0-3"
       transform="matrix(0.98671929,0,0,0.98671929,5785.3559,5040.6657)" /><path
       style="baseline-shift:baseline;display:inline;overflow:visible;vector-effect:none;fill:#f9f9f9;stroke-linecap:round;stroke-linejoin:round;stroke-miterlimit:10;enable-background:accumulate;stop-color:#000000;stop-opacity:1;opacity:1"
       d="m 1495.6777,2612.7559 a 0.15000001,0.15000001 0 0 0 -0.1504,0.1504 v 4.7636 a 0.15000001,0.15000001 0 0 0 0.1504,0.1504 0.15000001,0.15000001 0 0 0 0.1504,-0.1504 v -4.7636 a 0.15000001,0.15000001 0 0 0 -0.1504,-0.1504 z"
       id="path16270-4-9-8-8"
       transform="matrix(0.98671929,0,0,0.98671929,5785.3559,5040.6657)" /><path
       style="baseline-shift:baseline;display:inline;overflow:visible;vector-effect:none;fill:#f9f9f9;stroke-linecap:round;stroke-linejoin:round;stroke-miterlimit:10;enable-background:accumulate;stop-color:#000000;stop-opacity:1;opacity:1"
       d="m 1518.6367,2612.7637 c -0.3587,0 -0.6869,0.072 -0.9765,0.2187 a 0.15001501,0.15001501 0 0 0 -0,0 c -0.2803,0.1447 -0.5187,0.3405 -0.7129,0.584 -0.192,0.2407 -0.3387,0.5105 -0.4394,0.8066 a 0.15001501,0.15001501 0 0 0 -0,0 c -0.096,0.2903 -0.1426,0.5876 -0.1426,0.8887 0,0.3363 0.058,0.6563 0.1739,0.959 a 0.15001501,0.15001501 0 0 0 0,0 c 0.1154,0.3003 0.2744,0.569 0.4765,0.8047 a 0.15001501,0.15001501 0 0 0 0,0 c 0.2074,0.2359 0.4501,0.4233 0.7246,0.5625 a 0.15001501,0.15001501 0 0 0 0,0 c 0.2831,0.141 0.5933,0.2109 0.9199,0.2109 0.2313,0 0.4653,-0.04 0.7031,-0.1171 0.2413,-0.079 0.4673,-0.2005 0.6758,-0.3653 0.2137,-0.1691 0.3857,-0.387 0.5137,-0.6465 a 0.15000001,0.15000001 0 0 0 -0.068,-0.1992 0.15000001,0.15000001 0 0 0 -0.1992,0.066 c -0.1104,0.2239 -0.2543,0.4046 -0.4316,0.5449 -0.1825,0.1443 -0.3753,0.2471 -0.5821,0.3145 -0.2105,0.069 -0.4136,0.1016 -0.6113,0.1016 -0.2838,0 -0.5436,-0.06 -0.7852,-0.1797 -0.2404,-0.1219 -0.4512,-0.2854 -0.6347,-0.4942 -0.1785,-0.2086 -0.3183,-0.4473 -0.4219,-0.7168 -0.1028,-0.2678 -0.1543,-0.5497 -0.1543,-0.8515 0,-0.2689 0.041,-0.5329 0.127,-0.793 v -0 c 0.09,-0.2641 0.2205,-0.5016 0.3906,-0.7149 0.1679,-0.2107 0.3713,-0.3778 0.6152,-0.5039 0.2443,-0.1236 0.5233,-0.1875 0.8418,-0.1875 0.1946,0 0.3865,0.031 0.5781,0.09 0.1908,0.057 0.3698,0.1512 0.5372,0.2852 0.1668,0.1302 0.3081,0.3058 0.4238,0.5313 a 0.15000001,0.15000001 0 0 0 0.2031,0.064 0.15000001,0.15000001 0 0 0 0.065,-0.2012 c -0.1321,-0.2574 -0.3014,-0.469 -0.5059,-0.6289 -0.1945,-0.1556 -0.4065,-0.2693 -0.6348,-0.3379 h -0 c -0.218,-0.067 -0.4397,-0.1015 -0.6641,-0.1015 z"
       id="path16272-9-3-2-4"
       transform="matrix(0.98671929,0,0,0.98671929,5786.3862,5040.6657)" /><path
       style="baseline-shift:baseline;display:inline;overflow:visible;vector-effect:none;fill:#f9f9f9;stroke-linecap:round;stroke-linejoin:round;stroke-miterlimit:10;enable-background:accumulate;stop-color:#000000;stop-opacity:1;opacity:1"
       d="m 1506.8301,2612.7637 c -0.3587,0 -0.6868,0.072 -0.9766,0.2187 a 0.15001501,0.15001501 0 0 0 -0,0 c -0.2802,0.1446 -0.5188,0.3405 -0.7129,0.584 -0.192,0.2407 -0.3387,0.5105 -0.4395,0.8066 a 0.15001501,0.15001501 0 0 0 0,0 c -0.096,0.2904 -0.1445,0.5877 -0.1445,0.8887 0,0.3363 0.06,0.6564 0.1758,0.959 a 0.15001501,0.15001501 0 0 0 0,0 c 0.1155,0.3003 0.2744,0.569 0.4765,0.8047 a 0.15001501,0.15001501 0 0 0 0,0 c 0.2075,0.2359 0.4501,0.4233 0.7246,0.5625 a 0.15001501,0.15001501 0 0 0 0,0 c 0.2831,0.141 0.5914,0.2109 0.918,0.2109 0.2313,0 0.4672,-0.04 0.705,-0.1171 0.2414,-0.079 0.4673,-0.2006 0.6758,-0.3653 0.2136,-0.1691 0.3856,-0.387 0.5137,-0.6465 a 0.15000001,0.15000001 0 0 0 -0.068,-0.1992 0.15000001,0.15000001 0 0 0 -0.2011,0.066 c -0.1106,0.224 -0.2545,0.4046 -0.4317,0.5449 -0.1826,0.1443 -0.3752,0.2471 -0.582,0.3145 -0.2106,0.069 -0.4135,0.1016 -0.6113,0.1016 -0.2832,0 -0.5422,-0.06 -0.7832,-0.1797 h -0 c -0.2399,-0.1218 -0.4496,-0.2858 -0.6328,-0.4942 -0.1788,-0.2088 -0.32,-0.447 -0.4238,-0.7168 -0.1028,-0.2678 -0.1543,-0.5497 -0.1543,-0.8515 0,-0.2696 0.043,-0.5343 0.1289,-0.7949 0.09,-0.2637 0.2188,-0.5019 0.3886,-0.7149 0.168,-0.2106 0.3715,-0.3778 0.6153,-0.5039 0.2444,-0.1236 0.5233,-0.1875 0.8418,-0.1875 0.1945,0 0.3865,0.031 0.5781,0.09 0.1907,0.057 0.3697,0.1512 0.5371,0.2852 a 0.15001501,0.15001501 0 0 0 0,0 c 0.1668,0.1302 0.3062,0.3058 0.4218,0.5313 a 0.15000001,0.15000001 0 0 0 0.2032,0.064 0.15000001,0.15000001 0 0 0 0.064,-0.2012 c -0.1319,-0.257 -0.2998,-0.4691 -0.5039,-0.6289 -0.1945,-0.1556 -0.4085,-0.2693 -0.6367,-0.3379 h -0 c -0.218,-0.067 -0.4396,-0.1015 -0.664,-0.1015 z"
       id="path16274-4-8-0-1"
       transform="matrix(0.98671929,0,0,0.98671929,5786.3862,5040.6657)" /><path
       style="baseline-shift:baseline;display:inline;overflow:visible;vector-effect:none;fill:#f9f9f9;stroke-linecap:round;stroke-linejoin:round;stroke-miterlimit:10;enable-background:accumulate;stop-color:#000000;stop-opacity:1;opacity:1"
       d="m 1452.6758,2612.7559 c -0.3586,0 -0.685,0.072 -0.9746,0.2187 a 0.15001501,0.15001501 0 0 0 -0,0 c -0.2803,0.1446 -0.5187,0.3405 -0.7129,0.584 -0.1921,0.2407 -0.3406,0.5104 -0.4414,0.8066 a 0.15001501,0.15001501 0 0 0 0,0 c -0.096,0.2903 -0.1426,0.5876 -0.1426,0.8887 0,0.3363 0.058,0.6563 0.1739,0.9589 0.1154,0.3004 0.2745,0.571 0.4765,0.8067 a 0.15001501,0.15001501 0 0 0 0,0 c 0.2074,0.236 0.4501,0.4253 0.7246,0.5644 0.2831,0.141 0.5914,0.2129 0.918,0.2129 0.2312,0 0.4673,-0.04 0.705,-0.1172 0.2414,-0.079 0.4673,-0.2004 0.6758,-0.3652 0.2137,-0.1691 0.3856,-0.3871 0.5137,-0.6465 a 0.15000001,0.15000001 0 0 0 -0.068,-0.2011 0.15000001,0.15000001 0 0 0 -0.2011,0.068 c -0.1106,0.224 -0.2524,0.4027 -0.4297,0.543 -0.1825,0.1442 -0.3771,0.249 -0.584,0.3164 -0.2105,0.069 -0.4136,0.1015 -0.6113,0.1015 -0.2838,0 -0.5417,-0.059 -0.7832,-0.1796 -0.2405,-0.1219 -0.4513,-0.2854 -0.6348,-0.4942 -0.1785,-0.2086 -0.3183,-0.4474 -0.4219,-0.7168 -0.1028,-0.2678 -0.1562,-0.5497 -0.1562,-0.8515 0,-0.269 0.043,-0.533 0.1289,-0.793 v -0 c 0.09,-0.2641 0.2205,-0.5016 0.3906,-0.7148 0.1683,-0.2111 0.3707,-0.3777 0.6152,-0.5039 0.2444,-0.1236 0.5215,-0.1875 0.8399,-0.1875 0.1946,0 0.3865,0.031 0.5781,0.09 a 0.15001501,0.15001501 0 0 0 0,0 c 0.1908,0.057 0.3676,0.1512 0.5351,0.2852 a 0.15001501,0.15001501 0 0 0 0,0 c 0.1668,0.1302 0.3081,0.3057 0.4238,0.5312 a 0.15000001,0.15000001 0 0 0 0.2012,0.064 0.15000001,0.15000001 0 0 0 0.066,-0.2012 c -0.1321,-0.2576 -0.3014,-0.469 -0.5059,-0.6289 -0.1946,-0.1556 -0.4066,-0.2692 -0.6347,-0.3379 h -0 c -0.218,-0.067 -0.4415,-0.1015 -0.666,-0.1015 z"
       id="path16276-3-8-9-3"
       transform="matrix(0.98671929,0,0,0.98671929,5785.3559,5040.6657)" /><path
       style="baseline-shift:baseline;display:inline;overflow:visible;vector-effect:none;fill:#f9f9f9;stroke-linecap:round;stroke-linejoin:round;stroke-miterlimit:10;enable-background:accumulate;stop-color:#000000;stop-opacity:1;opacity:1"
       d="m 1466.8711,2612.7559 a 0.15001501,0.15001501 0 0 0 -0.1504,0.1504 v 3.1171 1.6465 a 0.15000001,0.15000001 0 0 0 0.1504,0.1485 0.15000001,0.15000001 0 0 0 0.1504,-0.1485 v -1.4961 h 1.9746 c 0.3076,0 0.5867,-0.082 0.8223,-0.248 a 0.15001501,0.15001501 0 0 0 0,-0 c 0.2289,-0.1665 0.4099,-0.3821 0.5391,-0.6406 0.1287,-0.2582 0.1953,-0.5367 0.1953,-0.8262 0,-0.2091 -0.042,-0.4135 -0.125,-0.6113 l -0,-0 c -0.077,-0.2001 -0.1851,-0.381 -0.3242,-0.5411 -0.141,-0.1671 -0.3101,-0.2996 -0.5039,-0.3945 -0.1981,-0.1021 -0.4151,-0.1523 -0.6465,-0.1523 z m 0.1504,0.2988 h 1.9316 c 0.1885,0 0.3551,0.039 0.5098,0.1191 a 0.15001501,0.15001501 0 0 0 0,0 c 0.1581,0.077 0.2924,0.183 0.4082,0.3203 a 0.15001501,0.15001501 0 0 0 0,0 c 0.1173,0.1348 0.2079,0.2849 0.2734,0.4551 a 0.15001501,0.15001501 0 0 0 0,0.01 c 0.07,0.1635 0.1016,0.327 0.1016,0.498 0,0.2446 -0.053,0.4729 -0.1621,0.6914 -0.1087,0.2175 -0.2557,0.3929 -0.4453,0.5313 -0.184,0.1295 -0.3954,0.1953 -0.6504,0.1953 h -1.9746 z"
       id="path16278-2-5-2-6"
       transform="matrix(0.98671929,0,0,0.98671929,5785.3559,5040.6657)" /><path
       style="baseline-shift:baseline;display:inline;overflow:visible;vector-effect:none;fill:#f9f9f9;stroke-linecap:round;stroke-linejoin:round;stroke-miterlimit:10;enable-background:accumulate;stop-color:#000000;stop-opacity:1;opacity:1"
       d="m 1499.3906,2612.8398 -2.289,4.7637 a 0.15000001,0.15000001 0 0 0 0.07,0.2012 0.15000001,0.15000001 0 0 0 0.2011,-0.07 l 2.1543,-4.4805 2.1524,4.4805 a 0.15000001,0.15000001 0 0 0 0.2012,0.07 0.15000001,0.15000001 0 0 0 0.07,-0.2012 l -2.2891,-4.7637 a 0.15001501,0.15001501 0 0 0 -0.2715,0 z"
       id="path16280-3-4-5-5"
       transform="matrix(0.98671929,0,0,0.98671929,5785.3559,5040.6657)" /><path
       style="baseline-shift:baseline;display:inline;overflow:visible;vector-effect:none;fill:#f9f9f9;stroke-linecap:round;stroke-linejoin:round;stroke-miterlimit:10;enable-background:accumulate;stop-color:#000000;stop-opacity:1;opacity:1"
       d="m 1457.7656,2612.8398 -2.289,4.7637 a 0.15000001,0.15000001 0 0 0 0.07,0.2012 0.15000001,0.15000001 0 0 0 0.2011,-0.07 l 2.1543,-4.4805 2.1524,4.4805 a 0.15000001,0.15000001 0 0 0 0.2012,0.07 0.15000001,0.15000001 0 0 0 0.07,-0.2012 l -2.2891,-4.7637 a 0.15001501,0.15001501 0 0 0 -0.2715,0 z"
       id="path16282-0-4-45-1"
       transform="matrix(0.98671929,0,0,0.98671929,5785.3559,5040.6657)" /><path
       style="baseline-shift:baseline;display:inline;overflow:visible;vector-effect:none;fill:#f9f9f9;stroke-linecap:round;stroke-linejoin:round;stroke-miterlimit:10;enable-background:accumulate;stop-color:#000000;stop-opacity:1;opacity:1"
       d="m 1498.041,2615.8457 a 0.15000001,0.15000001 0 0 0 -0.1504,0.1504 0.15000001,0.15000001 0 0 0 0.1504,0.1484 h 2.9707 a 0.15000001,0.15000001 0 0 0 0.1485,-0.1484 0.15000001,0.15000001 0 0 0 -0.1485,-0.1504 z"
       id="path16284-4-1-9-5"
       transform="matrix(0.98671929,0,0,0.98671929,5785.3559,5040.6657)" /><path
       style="baseline-shift:baseline;display:inline;overflow:visible;vector-effect:none;fill:#f9f9f9;stroke-linecap:round;stroke-linejoin:round;stroke-miterlimit:10;enable-background:accumulate;stop-color:#000000;stop-opacity:1;opacity:1"
       d="m 1456.416,2615.8457 a 0.15000001,0.15000001 0 0 0 -0.1504,0.1504 0.15000001,0.15000001 0 0 0 0.1504,0.1484 h 2.9707 a 0.15000001,0.15000001 0 0 0 0.1504,-0.1484 0.15000001,0.15000001 0 0 0 -0.1504,-0.1504 z"
       id="path16286-7-4-2-1"
       transform="matrix(0.98671929,0,0,0.98671929,5785.3559,5040.6657)" /><path
       style="baseline-shift:baseline;display:inline;overflow:visible;vector-effect:none;fill:#f9f9f9;stroke-linecap:round;stroke-linejoin:round;stroke-miterlimit:10;enable-background:accumulate;stop-color:#000000;stop-opacity:1;opacity:1"
       d="m 1463.8477,2615.8691 a 0.15000001,0.15000001 0 0 0 -0.047,0.2071 l 1.0722,1.6738 a 0.15000001,0.15000001 0 0 0 0.2071,0.045 0.15000001,0.15000001 0 0 0 0.045,-0.207 l -1.0703,-1.6738 a 0.15000001,0.15000001 0 0 0 -0.207,-0.045 z"
       id="path16288-9-7-67-3"
       transform="matrix(0.98671929,0,0,0.98671929,5785.3559,5040.6657)" /><path
       style="baseline-shift:baseline;display:inline;overflow:visible;vector-effect:none;fill:#f9f9f9;stroke-linecap:round;stroke-linejoin:round;stroke-miterlimit:10;enable-background:accumulate;stop-color:#000000;stop-opacity:1;opacity:1"
       d="m 1492.5293,2615.8691 a 0.15000001,0.15000001 0 0 0 -0.045,0.2071 l 1.0703,1.6738 a 0.15000001,0.15000001 0 0 0 0.207,0.045 0.15000001,0.15000001 0 0 0 0.047,-0.207 l -1.0723,-1.6738 a 0.15000001,0.15000001 0 0 0 -0.207,-0.045 z"
       id="path16290-5-4-3-7"
       transform="matrix(0.98671929,0,0,0.98671929,5785.3559,5040.6657)" /><path
       d="m 7221.0386,7592.9287 q 0.8896,0 1.53,0.6406 0.6229,0.6405 0.6229,1.5303 v 0.035 q 0,0.8896 -0.6229,1.5123 -0.6405,0.6406 -1.53,0.6406 h -1.0143 q -1.459,0 -2.473,1.0142 -0.9964,1.0142 -1.0143,2.4732 v 10.4977 q 0,0.9074 -0.6405,1.5123 -0.6405,0.6407 -1.5124,0.6407 h -0.053 q -0.8718,0 -1.5123,-0.6407 -0.6406,-0.6049 -0.6406,-1.5123 v -10.4977 q 0.035,-3.2561 2.2953,-5.5514 2.2953,-2.2953 5.5514,-2.2953 z"
       style="font-size:28.9462px;font-family:'Typo Round Bold Demo';-inkscape-font-specification:'Typo Round Bold Demo, Normal';text-align:center;letter-spacing:0.034611px;text-anchor:middle;fill:#f9f9f9;stroke-width:0.88121"
       id="path16296-8-8-7-0" /><path
       d="m 7230.61,7604.8321 q 0,1.7615 1.2275,3.007 1.2455,1.2277 3.0248,1.2277 1.7615,0 3.0071,-1.2277 1.2275,-1.2454 1.2275,-3.007 v -9.7326 q 0,-0.8897 0.6405,-1.5303 0.6407,-0.6405 1.5303,-0.6405 h 0.035 q 0.9074,0 1.5124,0.6405 0.6405,0.6406 0.6405,1.5303 v 9.7326 q 0,3.5407 -2.5266,6.0674 -2.5265,2.5265 -6.0672,2.5265 -3.5585,0 -6.0851,-2.5265 -2.5266,-2.5267 -2.5266,-6.0674 v -9.7326 q 0,-0.8897 0.6405,-1.5303 0.6406,-0.6405 1.5124,-0.6405 h 0.053 q 0.8718,0 1.5123,0.6405 0.6406,0.6406 0.6406,1.5303 z"
       style="font-size:28.9462px;font-family:'Typo Round Bold Demo';-inkscape-font-specification:'Typo Round Bold Demo, Normal';text-align:center;letter-spacing:0.034611px;text-anchor:middle;fill:#f9f9f9;stroke-width:0.88121"
       id="path16298-5-8-0-83" /><path
       d="m 7250.3231,7585.6337 q 0.8719,0 1.5124,0.6227 0.6405,0.6407 0.6405,1.5302 v 5.1421 h 2.669 q 0.8719,0 1.5124,0.6406 0.6405,0.6405 0.6405,1.5303 v 0.035 q 0,0.9075 -0.6405,1.5123 -0.6405,0.6406 -1.5124,0.6406 h -2.669 v 10.5511 q 0,0.516 0.3559,0.8719 0.356,0.3558 0.8898,0.3558 h 1.4234 q 0.8719,0 1.5124,0.6406 0.6405,0.6405 0.6405,1.5301 v 0.035 q 0,0.9074 -0.6405,1.5122 -0.6405,0.6407 -1.5124,0.6407 h -1.4234 q -2.3131,0 -3.9679,-1.6371 -1.6369,-1.6546 -1.6369,-3.9499 v -20.0525 q 0,-0.8896 0.6406,-1.5301 0.6406,-0.6228 1.5124,-0.6228 z"
       style="font-size:28.9462px;font-family:'Typo Round Bold Demo';-inkscape-font-specification:'Typo Round Bold Demo, Normal';text-align:center;letter-spacing:0.034611px;text-anchor:middle;fill:#f9f9f9;stroke-width:0.88121"
       id="path16300-6-0-9-5" /><path
       d="m 7263.7555,7592.9287 c 0.6049,0 1.109,0.2135 1.5124,0.6406 0.427,0.427 0.6405,0.9372 0.6405,1.5303 v 16.1736 c 0,0.6049 -0.2135,1.1091 -0.6405,1.5123 -0.4034,0.4271 -0.9075,0.6406 -1.5124,0.6406 h -0.035 c -0.5932,0 -1.1031,-0.2135 -1.5301,-0.6406 -0.4271,-0.4032 -0.6406,-0.9074 -0.6406,-1.5123 v -16.1736 c 0,-0.5931 0.2135,-1.1032 0.6406,-1.5303 0.427,-0.427 0.9371,-0.6406 1.5301,-0.6406 z m -0.018,-2.3131 c -0.6879,0 -1.2752,-0.2432 -1.7615,-0.7295 -0.4864,-0.4863 -0.7295,-1.0734 -0.7295,-1.7613 0,-0.6762 0.2432,-1.2575 0.7295,-1.7438 0.4863,-0.4863 1.0736,-0.7295 1.7615,-0.7295 0.6762,0 1.2573,0.2434 1.7437,0.7295 0.4981,0.4745 0.7473,1.0557 0.7473,1.7438 0,0.6997 -0.2492,1.2869 -0.7473,1.7613 -0.4864,0.4864 -1.0675,0.7295 -1.7437,0.7295 z"
       style="font-size:28.9462px;font-family:'Typo Round Bold Demo';-inkscape-font-specification:'Typo Round Bold Demo, Normal';text-align:center;letter-spacing:0.034611px;text-anchor:middle;fill:#f9f9f9;stroke-width:0.88121"
       id="path16302-7-2-18-4" /><path
       d="m 7284.199,7589.7129 c -0.1919,-0.5737 -0.1356,-1.1212 0.1476,-1.6359 0.2759,-0.5371 0.7224,-0.8297 1.2614,-1.0773 l 2.6957,-1.2387 c 0.5497,-0.2526 1.1212,-0.1356 1.6356,0.1476 0.5301,0.2536 0.8874,0.6684 1.0723,1.2443 l 0.011,0.033 c 0.1812,0.5647 0.1337,1.1156 -0.1424,1.6529 -0.2534,0.5297 -0.6945,0.8194 -1.2443,1.072 l -2.6956,1.2387 c -0.539,0.2476 -1.1156,0.1337 -1.6528,-0.1423 -0.5372,-0.2759 -0.8895,-0.6989 -1.0775,-1.2614 z"
       style="font-size:28.9462px;font-family:'Typo Round Bold Demo';-inkscape-font-specification:'Typo Round Bold Demo, Normal';text-align:center;letter-spacing:0.034611px;text-anchor:middle;fill:#f9f9f9;stroke-width:0.88121"
       id="path16304-0-8-0-0" /><path
       id="path16306-0-2-9-6"
       style="font-size:28.9462px;font-family:'Typo Round Bold Demo';-inkscape-font-specification:'Typo Round Bold Demo, Normal';text-align:center;letter-spacing:0.034611px;text-anchor:middle;fill:#f9f9f9;stroke-width:0.88386"
       d="m 7280.858,7592.8899 c -2.8314,1e-4 -5.2522,1.0055 -7.2627,3.0162 -2.0106,2.0104 -3.016,4.4315 -3.016,7.2633 0,2.8315 1.0054,5.2525 3.016,7.2632 2.0107,2.0109 4.4315,3.0166 7.2633,3.0166 0.7911,0 1.5242,-0.068 2.2002,-0.2032 0,-3e-4 0,-3e-4 0,-5e-4 a 2.2319838,2.1965975 0 0 0 0.3421,-0.093 2.2319838,2.1965975 0 0 0 0.3239,-0.1466 2.2319838,2.1965975 0 0 0 0.2964,-0.1956 2.2319838,2.1965975 0 0 0 0.2613,-0.2392 2.2319838,2.1965975 0 0 0 0.2188,-0.2774 2.2319838,2.1965975 0 0 0 0.1715,-0.308 2.2319838,2.1965975 0 0 0 0.03,-0.071 2.2319838,2.1965975 0 0 0 0.028,-0.071 2.2319838,2.1965975 0 0 0 0.026,-0.072 2.2319838,2.1965975 0 0 0 0.023,-0.073 2.2319838,2.1965975 0 0 0 0.019,-0.075 2.2319838,2.1965975 0 0 0 0.018,-0.075 2.2319838,2.1965975 0 0 0 0.015,-0.076 2.2319838,2.1965975 0 0 0 0.011,-0.075 2.2319838,2.1965975 0 0 0 0.011,-0.076 2.2319838,2.1965975 0 0 0 0.011,-0.077 2.2319838,2.1965975 0 0 0 0,-0.077 2.2319838,2.1965975 0 0 0 0,-0.077 2.2319838,2.1965975 0 0 0 0,-0.077 2.2319838,2.1965975 0 0 0 0,-0.078 2.2319838,2.1965975 0 0 0 -0.011,-0.076 2.2319838,2.1965975 0 0 0 -0.011,-0.076 2.2319838,2.1965975 0 0 0 -0.011,-0.076 2.2319838,2.1965975 0 0 0 -0.015,-0.075 2.2319838,2.1965975 0 0 0 -0.017,-0.076 2.2319838,2.1965975 0 0 0 -0.019,-0.075 2.2319838,2.1965975 0 0 0 -0.023,-0.073 2.2319838,2.1965975 0 0 0 -0.026,-0.072 2.2319838,2.1965975 0 0 0 -0.028,-0.072 2.2319838,2.1965975 0 0 0 -0.03,-0.07 2.2319838,2.1965975 0 0 0 -0.034,-0.07 2.2319838,2.1965975 0 0 0 -0.036,-0.069 2.2319838,2.1965975 0 0 0 -0.038,-0.067 2.2319838,2.1965975 0 0 0 -0.041,-0.067 2.2319838,2.1965975 0 0 0 -0.044,-0.066 2.2319838,2.1965975 0 0 0 -0.045,-0.062 2.2319838,2.1965975 0 0 0 -0.047,-0.061 2.2319838,2.1965975 0 0 0 -0.05,-0.06 2.2319838,2.1965975 0 0 0 -0.2508,-0.2492 2.2319838,2.1965975 0 0 0 -0.2882,-0.2073 2.2319838,2.1965975 0 0 0 -0.3183,-0.1596 2.2319838,2.1965975 0 0 0 -0.3394,-0.1067 2.2319838,2.1965975 0 0 0 -0.3531,-0.053 2.2319838,2.1965975 0 0 0 -0.3565,0 2.2319838,2.1965975 0 0 0 -0.3474,0.059 c -0.3942,0.078 -0.8057,0.1172 -1.234,0.1172 -1.642,0 -3.0395,-0.5709 -4.1937,-1.713 -1.142,-1.1541 -1.7131,-2.5523 -1.7131,-4.1944 0,-1.6299 0.5711,-3.0219 1.7131,-4.176 1.1542,-1.154 2.5517,-1.7312 4.1937,-1.7312 1.6299,0 3.0219,0.5772 4.176,1.7312 1.1543,1.1541 1.7312,2.5461 1.7312,4.176 h 5e-4 v 8.12 c 0,0.6065 0.2139,1.1126 0.6423,1.517 0.4285,0.4285 0.9343,0.6423 1.5169,0.6423 h 0.053 c 0.5828,0 1.0883,-0.2138 1.5166,-0.6423 0.4282,-0.4042 0.6427,-0.9105 0.6427,-1.517 v -8.12 c 0,-2.8315 -1.0053,-5.2526 -3.0161,-7.2631 -2.0103,-2.0109 -4.4319,-3.0162 -7.2633,-3.0162 z" /></g></svg>
