<?xml version="1.0" encoding="UTF-8" standalone="no"?>
<svg
   width="33.776764"
   height="34.987671"
   viewBox="0 0 33.776764 34.987671"
   fill="none"
   stroke="currentColor"
   stroke-width="2"
   stroke-linecap="round"
   stroke-linejoin="round"
   class="feather feather-instagram"
   version="1.1"
   id="svg1"
   xml:space="preserve"
   xmlns="http://www.w3.org/2000/svg"
   xmlns:svg="http://www.w3.org/2000/svg"><defs
     id="defs1" /><path
     d="m 33.275749,25.946164 v 5.11649 a 3.296001,3.4109928 0 0 1 -3.59264,3.41099 32.613929,33.751773 0 0 1 -14.22225,-5.23587 A 32.136009,33.257179 0 0 1 5.5728691,19.004794 32.613929,33.751773 0 0 1 0.51350913,4.2181443 3.296001,3.4109928 0 0 1 3.7930191,0.50016424 h 4.94401 a 3.296001,3.4109928 0 0 1 3.2959999,2.93345006 21.160326,21.898573 0 0 0 1.1536,4.79245 3.296001,3.4109928 0 0 1 -0.74161,3.5985997 l -2.09295,2.16597 a 26.368008,27.287942 0 0 0 9.888,10.23298 l 2.09296,-2.16597 a 3.296001,3.4109928 0 0 1 3.47728,-0.76748 21.160326,21.898573 0 0 0 4.63088,1.19385 3.296001,3.4109928 0 0 1 2.83456,3.46215 z"
     id="path1-1"
     style="fill:none;stroke:#ffffff;stroke-width:1;stroke-linecap:round;stroke-linejoin:round;stroke-dasharray:none" /></svg>
