<?xml version="1.0" encoding="UTF-8" standalone="no"?>
<svg
   width="33.884338"
   height="34.96228"
   viewBox="0 0 33.884338 34.96228"
   fill="none"
   stroke="currentColor"
   stroke-width="2"
   stroke-linecap="round"
   stroke-linejoin="round"
   class="feather feather-instagram"
   version="1.1"
   id="svg1"
   xml:space="preserve"
   xmlns="http://www.w3.org/2000/svg"
   xmlns:svg="http://www.w3.org/2000/svg"><defs
     id="defs1" /><g
     id="g6"
     style="fill:none;stroke:#ffffff;stroke-width:0.537794;stroke-dasharray:none"
     transform="matrix(1.8278538,0,0,1.8915885,-507.398,-719.1418)"><path
       d="m 286.83407,398.39291 h -0.59459 l -0.59459,-0.0541 -0.59458,-0.1081 -0.59459,-0.16216 -0.54053,-0.16215 -0.54054,-0.21621 -0.54054,-0.2162 -0.48648,-0.27026 -0.16216,-0.1081 -0.21621,-0.1081 -3.62158,0.97292 0.97296,-3.62144 -0.32432,-0.54052 -0.27028,-0.59456 -0.27026,-0.59456 -0.21621,-0.59457 -0.16216,-0.59456 -0.1081,-0.64862 -0.0541,-0.64862 -0.0541,-0.70266 0.0541,-0.43241 v -0.48646 l 0.0541,-0.43241 0.1081,-0.43242 0.10811,-0.43241 0.1081,-0.43241 0.27027,-0.81077 0.37838,-0.81078 0.48647,-0.75671 0.48649,-0.64862 0.59458,-0.64862 0.64865,-0.59456 0.70269,-0.48646 0.7027,-0.48646 0.8108,-0.37836 0.8108,-0.27026 0.43242,-0.16215 0.43244,-0.0541 0.43242,-0.10811 0.48649,-0.0541 0.43242,-0.0541 h 0.43243 0.48648 l 0.43242,0.0541 0.48649,0.0541 0.43242,0.10811 0.43244,0.0541 0.43242,0.16215 0.81081,0.27026 0.8108,0.37836 0.7027,0.48646 0.70268,0.48646 0.64865,0.59456 0.59459,0.64862 0.48648,0.64862 0.48648,0.75671 0.37838,0.81078 0.27026,0.81077 0.10811,0.43241 0.1081,0.43241 0.10811,0.43242 0.0541,0.43241 v 0.48646 l 0.0541,0.43241 -0.0541,0.48646 v 0.43241 l -0.0541,0.48646 -0.10811,0.43241 -0.1081,0.43241 -0.10811,0.43241 -0.27026,0.81078 -0.37838,0.75672 -0.48648,0.75671 -0.48648,0.70267 -0.59459,0.64862 -0.64865,0.54051 -0.70268,0.54051 -0.7027,0.43242 -0.8108,0.37835 -0.81081,0.32431 -0.43242,0.1081 -0.43244,0.10811 -0.43242,0.0541 -0.48649,0.10809 h -0.43242 -0.48648"
       style="fill:none;fill-opacity:1;stroke:#ffffff;stroke-width:0.537794;stroke-linecap:round;stroke-linejoin:round;stroke-miterlimit:10;stroke-dasharray:none;stroke-opacity:1"
       id="path4801-7-6-3-9-6" /><path
       d="m 291.55295,392.8978 -0.23817,0.33343 -0.0953,0.1429 -0.19053,0.19053 -0.19055,0.1429 -0.19053,0.19053 -0.23817,0.0953 -0.23817,0.0953 -0.28582,0.0953 -0.23817,0.0476 h -0.28581 -0.23817 l -0.52398,-0.0476 -0.52399,-0.1429 -0.57161,-0.19053 -0.61926,-0.2858 -0.61925,-0.33343 -0.28581,-0.19053 -0.33344,-0.19053 -0.28582,-0.23817 -0.33343,-0.23816 -0.28581,-0.23817 -0.28581,-0.2858 -0.28581,-0.28579 -0.28581,-0.33343 -0.23817,-0.2858 -0.19054,-0.33343 -0.23818,-0.28579 -0.19054,-0.28581 -0.2858,-0.61923 -0.28582,-0.61922 -0.19054,-0.5716 -0.1429,-0.52396 -0.0477,-0.52397 -0.0476,-0.28579 0.0476,-0.23817 0.0477,-0.28579 0.0476,-0.23817 0.0953,-0.23817 0.1429,-0.23816 0.14291,-0.19053 0.19054,-0.19053 0.19053,-0.19053 0.14291,-0.1429 0.2858,-0.19053 0.19055,-0.0953 0.1429,-0.0476 h 0.14291 l 0.1429,0.0476 0.1429,0.0476 0.1429,0.0953 0.0953,0.14291 0.0476,0.1429 0.52398,1.57189 0.0476,0.14289 0.0477,0.1429 v 0.23817 l -0.0477,0.19053 -0.1429,0.19053 -0.42872,0.42869 -0.0953,0.1429 -0.0476,0.19054 v 0.23816 l 0.0953,0.19053 0.0953,0.1429 0.0953,0.1429 0.14291,0.19054 0.19055,0.23816 0.19053,0.19053 0.19054,0.2858 0.23817,0.23816 0.28582,0.2858 0.33344,0.2858 0.23817,0.28579 0.23817,0.19054 0.23818,0.19052 0.23818,0.19054 0.1429,0.1429 0.19054,0.0953 0.1429,0.0953 0.0953,0.0477 0.0953,0.0476 h 0.19054 l 0.23818,-0.0476 0.1429,-0.14291 0.42871,-0.38106 0.1429,-0.1429 0.19055,-0.0476 h 0.28581 0.1429 l 0.1429,0.0476 1.57195,0.52396 0.1429,0.0953 0.14291,0.0953 0.0953,0.1429 0.0476,0.14289 0.0476,0.1429 -0.0476,0.1429 v 0.1429 l -0.0953,0.1429"
       style="fill:none;stroke:#ffffff;stroke-width:0.537794;stroke-linecap:round;stroke-linejoin:round;stroke-miterlimit:10;stroke-dasharray:none;stroke-opacity:1"
       id="path4821-8-3-6-4-1" /></g></svg>
